<svg xmlns="http://www.w3.org/2000/svg" width="27.989" height="22" viewBox="0 0 27.989 22"><g transform="translate(0 0)"><path d="M900.1,480.916l-3.438-5.116-.917-.2.071-1.057-2.281-3.4a1.188,1.188,0,0,0-.934-.595c-.027,0-.053,0-.081,0h-19.6a.662.662,0,0,0-.638.686.617.617,0,0,0,.065.276l5.472,9.548a1.235,1.235,0,0,1,0,1.105l-5.437,9.483a.632.632,0,0,0,.279.833,1.079,1.079,0,0,0,.468.066h19.146c.027,0,.3-.007.327-.01a1.183,1.183,0,0,0,.934-.6l6.565-9.768A1.244,1.244,0,0,0,900.1,480.916Z" transform="translate(-872.282 -470.549)" fill="#ffb03b"/><g transform="translate(8.037 4.042)"><path d="M937.311,495.563A43.042,43.042,0,0,0,927.505,504l-3.666-2.873a12.746,12.746,0,0,0-2.056,1.772l6.676,6.788a.244.244,0,0,0,.19.08.2.2,0,0,0,.051,0,.268.268,0,0,0,.195-.165,40.828,40.828,0,0,1,9.162-12.683c.082-.076.1-.09.1-.09S937.317,495.559,937.311,495.563Z" transform="translate(-921.782 -495.563)" fill="#fff"/></g></g></svg>