<svg xmlns="http://www.w3.org/2000/svg" width="607.51" height="157.64" viewBox="0 0 607.51 157.64">
  <defs>
    <style>
      .cls-1 {
        fill: #222;
      }
    </style>
  </defs>
  <title>text+outline</title>
  <g id="Layer_2" data-name="Layer 2">
    <g id="Layer_1-2" data-name="Layer 1">
      <g>
        <path class="cls-1" d="M606.29,74.32l-47-70A8.53,8.53,0,0,0,552.55,0L552,0H4.45a4.45,4.45,0,0,0-4,6.43L39.68,74.85a8.87,8.87,0,0,1,0,7.94L.47,151.22a4.44,4.44,0,0,0,4,6.42H552a5.82,5.82,0,0,0,.59,0,8.5,8.5,0,0,0,6.69-4.28l47-70A8.89,8.89,0,0,0,606.29,74.32Zm-52.52,76a2.24,2.24,0,0,1-1.89,1.17H7.36L45.14,85.56A15.19,15.19,0,0,0,45.1,72L7.36,6.19H551.9a2.34,2.34,0,0,1,1.92,1.25l47,70a2.69,2.69,0,0,1,0,2.65Z"/>
        <g>
          <path class="cls-1" d="M521.47,42.14H483.63a5.34,5.34,0,0,0,0,10.68h37.84a5.34,5.34,0,0,0,0-10.68Z"/>
          <path class="cls-1" d="M503,58.42a5.34,5.34,0,0,0-5.34,5.33v46.3a5.34,5.34,0,1,0,10.68,0V63.75A5.34,5.34,0,0,0,503,58.42Z"/>
          <g>
            <path class="cls-1" d="M361.79,42.23a5.34,5.34,0,0,0-5.34,5.33V110a5.34,5.34,0,1,0,10.67,0V47.56A5.33,5.33,0,0,0,361.79,42.23Z"/>
            <path class="cls-1" d="M401.68,43h0a5.33,5.33,0,0,0-7.4,1.47L373.41,75.8a4.59,4.59,0,0,0-.51,1,1.52,1.52,0,0,0-.06.2,7.19,7.19,0,0,0-.24.79c0,.17,0,.34-.05.51s0,.34,0,.52,0,.34,0,.51,0,.34.05.51a7.36,7.36,0,0,0,.24.8c0,.06,0,.12.06.19a4.59,4.59,0,0,0,.51,1l20.87,31.34a5.33,5.33,0,0,0,7.4,1.47h0a5.34,5.34,0,0,0,1.48-7.4l-18.9-28.37,18.9-28.38A5.34,5.34,0,0,0,401.68,43Z"/>
          </g>
          <path class="cls-1" d="M250.21,45.27a5.31,5.31,0,0,0-1.67-2l0,0a4.44,4.44,0,0,0-.84-.5l-.07,0-.07,0a5.13,5.13,0,0,0-.78-.27l-.29-.08a4.52,4.52,0,0,0-.63-.08,3.71,3.71,0,0,0-.47,0l-.46,0a4.52,4.52,0,0,0-.63.08l-.29.08a5.66,5.66,0,0,0-.79.27l-.07,0-.07,0a4.69,4.69,0,0,0-.83.5l0,0a5.31,5.31,0,0,0-1.67,2l-27.64,62.47a5.34,5.34,0,1,0,9.67,4.52l22.82-51.59,22.83,51.59a5.34,5.34,0,1,0,9.67-4.52Z"/>
          <path class="cls-1" d="M245.35,83.37a5.34,5.34,0,1,0,5.34,5.34A5.34,5.34,0,0,0,245.35,83.37Z"/>
          <path class="cls-1" d="M141.7,44.57a5.33,5.33,0,0,0-5.58-2.24l-.13,0a6.43,6.43,0,0,0-.78.24,5.34,5.34,0,0,0-3.36,5V110a5.34,5.34,0,0,0,10.68,0V64.82l18.15,26.8a5.34,5.34,0,1,0,8.88-5.93Z"/>
          <path class="cls-1" d="M195.32,42.61a6.86,6.86,0,0,0-.77-.24l-.14,0a5.35,5.35,0,0,0-5.58,2.24L171.4,70.37a5.33,5.33,0,1,0,8.87,5.93L188,64.85V110a5.34,5.34,0,0,0,10.67,0V47.56A5.34,5.34,0,0,0,195.32,42.61Z"/>
          <g>
            <path class="cls-1" d="M325.64,87.39a15.31,15.31,0,0,0,3.24-1.54,23.76,23.76,0,0,0,10.67-20.58C339.2,52.22,328.06,42,315,42H296.25a5.28,5.28,0,1,0,0,10.56h18.92a13.65,13.65,0,0,1,13.75,12.25,13.34,13.34,0,0,1-8.8,13.63c-2,.72-3.52,1-4.35,1.3a5.14,5.14,0,0,0-1.23.59,5.33,5.33,0,0,0-1.47,7.4L330,113.12a5.34,5.34,0,0,0,8.88-5.93Z"/>
            <rect class="cls-1" x="291.02" y="58.79" width="10.69" height="56.68" rx="5.34"/>
          </g>
          <path class="cls-1" d="M464.63,47.39a5.29,5.29,0,0,0-5.28-5.28H441.8c-13.05,0-24.2,10.19-24.55,23.24,0,0,0,.06,0,.1a4.35,4.35,0,0,0-.06.52V91.19a4.78,4.78,0,0,0,.07.65c0,.12,0,.22,0,.34.35,13,11.5,23.24,24.55,23.24h17.55a5.28,5.28,0,0,0,0-10.56H441.63c-7,0-13.72-5.77-13.74-12.8,0-.16,0-.31-.05-.47s0-.26,0-.4V66c0-.07,0-.14,0-.21s0-.19,0-.28c0-7,6.71-12.81,13.74-12.81h17.72A5.28,5.28,0,0,0,464.63,47.39Z"/>
          <rect class="cls-1" x="432.87" y="73.5" width="25.51" height="10.67" rx="5.34"/>
          <g>
            <path class="cls-1" d="M85.08,94.83a2.28,2.28,0,0,0-2.28,2.28v16.21a2.29,2.29,0,1,0,4.57,0V97.11A2.28,2.28,0,0,0,85.08,94.83Z"/>
            <path class="cls-1" d="M111.89,102.75H92.06a2.29,2.29,0,1,0,0,4.57h19.83a2.29,2.29,0,1,0,0-4.57Z"/>
            <path class="cls-1" d="M92.75,62.46h0l.22,0H103.8l.28,0h.14A10.4,10.4,0,0,0,114.16,52v-7.5a2.26,2.26,0,1,0-4.51,0V52c0,3-2.47,5.87-5.48,5.88l-.2,0H92.8c-3,0-5.48-2.87-5.48-5.88V44.46a2.26,2.26,0,1,0-4.51,0V52A10.41,10.41,0,0,0,92.75,62.46Z"/>
            <path class="cls-1" d="M98.51,55.78a2.28,2.28,0,0,0,2.29-2.28V47.15a2.29,2.29,0,0,0-4.57,0V53.5A2.28,2.28,0,0,0,98.51,55.78Z"/>
            <path class="cls-1" d="M82.83,86.75A2.3,2.3,0,0,0,85.12,89h26.75a2.29,2.29,0,0,0,0-4.58H100.79V78.09a2.29,2.29,0,0,0-4.57,0v6.37H85.12A2.3,2.3,0,0,0,82.83,86.75Z"/>
            <path class="cls-1" d="M111.87,68.65H85.12a2.29,2.29,0,1,0,0,4.58h26.75a2.29,2.29,0,0,0,0-4.58Z"/>
          </g>
        </g>
      </g>
    </g>
  </g>
</svg>
