<svg xmlns="http://www.w3.org/2000/svg" width="274.24" height="157.64" viewBox="0 0 274.24 157.64">
  <defs>
    <style>
      .cls-1 {
        fill: #222;
      }
    </style>
  </defs>
  <title>short-text+outline</title>
  <g id="Layer_2" data-name="Layer 2">
    <g id="Layer_1-2" data-name="Layer 1">
      <g>
        <path class="cls-1" d="M273,74.32l-47-70A8.53,8.53,0,0,0,219.27,0l-.59,0H4.45a4.45,4.45,0,0,0-4,6.43L39.68,74.85a8.87,8.87,0,0,1,0,7.94L.47,151.22a4.44,4.44,0,0,0,4,6.42H218.68a5.72,5.72,0,0,0,.59,0,8.5,8.5,0,0,0,6.69-4.28l47-70A8.85,8.85,0,0,0,273,74.32Zm-52.51,76a2.24,2.24,0,0,1-1.9,1.17H7.36L45.14,85.56A15.19,15.19,0,0,0,45.1,72L7.36,6.19H218.62a2.34,2.34,0,0,1,1.93,1.25l47,70a2.65,2.65,0,0,1,.05,2.65Z"/>
        <g>
          <path class="cls-1" d="M135.12,37.52a6.41,6.41,0,0,0-6.72-2.7l-.16,0a6.39,6.39,0,0,0-5,6.25v75.12a6.43,6.43,0,0,0,12.85,0V61.87L158,94.13A6.42,6.42,0,1,0,168.63,87Z"/>
          <path class="cls-1" d="M199.63,35.16a6.25,6.25,0,0,0-.93-.29l-.17,0a6.39,6.39,0,0,0-6.71,2.7l-21,31a6.42,6.42,0,0,0,10.68,7.13l9.31-13.77v54.32a6.42,6.42,0,1,0,12.84,0V41.12A6.41,6.41,0,0,0,199.63,35.16Z"/>
          <path class="cls-1" d="M73.32,98a2.75,2.75,0,0,0-2.75,2.75v19.5a2.75,2.75,0,1,0,5.5,0v-19.5A2.75,2.75,0,0,0,73.32,98Z"/>
          <path class="cls-1" d="M105.57,107.51H81.71a2.75,2.75,0,0,0,0,5.5h23.86a2.75,2.75,0,0,0,0-5.5Z"/>
          <path class="cls-1" d="M82.54,59h0l.27,0h13c.12,0,.23,0,.34,0h.18a12.52,12.52,0,0,0,12-12.63v-9a2.72,2.72,0,1,0-5.43,0v9.11c0,3.62-3,7.07-6.59,7.08l-.24,0-.21,0H82.6C79,53.56,76,50.11,76,46.49V37.38a2.72,2.72,0,1,0-5.43,0v9A12.52,12.52,0,0,0,82.54,59Z"/>
          <path class="cls-1" d="M89.48,51a2.74,2.74,0,0,0,2.74-2.74V40.62a2.75,2.75,0,0,0-5.49,0v7.64A2.75,2.75,0,0,0,89.48,51Z"/>
          <path class="cls-1" d="M70.61,88.26A2.75,2.75,0,0,0,73.36,91h32.18a2.75,2.75,0,0,0,0-5.5H92.22V77.84a2.75,2.75,0,0,0-5.49,0v7.67H73.36A2.75,2.75,0,0,0,70.61,88.26Z"/>
          <path class="cls-1" d="M105.54,66.49H73.36a2.75,2.75,0,0,0,0,5.5h32.18a2.75,2.75,0,0,0,0-5.5Z"/>
        </g>
      </g>
    </g>
  </g>
</svg>
