<svg xmlns="http://www.w3.org/2000/svg" width="100" height="36" viewBox="0 0 100 36">
  <g fill="none">
    <path fill="#F15B41" d="M36.3097959,13.4815136 L28.1078572,20.6970811 L7.79403063,20.6970811 C5.89925506,20.6945843 4.06901376,21.3701255 2.64841837,22.5963243 L12.8938776,13.5807568 L13.0510714,13.4445406 L25.8872449,2.14054054 C27.9569883,0.319760601 30.8627737,-0.282848064 33.5100197,0.559711397 C36.1572657,1.40227086 38.1437926,3.56199362 38.7212952,6.22533302 C39.2987977,8.8886724 38.3795394,11.6510039 36.3097959,13.4717838 L36.3097959,13.4815136 Z"/>
    <ellipse cx="7.794" cy="7.817" fill="#F99D1D" rx="7.794" ry="7.622"/>
    <path fill="#272560" d="M7.79403063,20.6970742 C5.89925506,20.6945842 4.06901376,21.3701255 2.64841837,22.5963243 L2.5827551,22.6547027 C-0.617340426,25.4693846 -0.878362925,30.2881559 1.99974502,33.4177296 C4.87785297,36.5473033 9.80521046,36.8025737 13.0053061,33.9878919 L28.1098469,20.699027 L7.79403063,20.6970742 Z"/>
    <path fill="#00B6BD" d="M28.0973646,20.7029186 L12.9912379,33.9917835 C11.5608537,35.2496903 9.70372459,35.9431807 7.78010174,35.9378548 L31.0859582,35.9378548 C35.5813489,35.8674762 38.7552544,32.5599297 38.7552544,28.3164321 C38.7552544,24.0729346 35.3412717,20.7616361 31.0859582,20.6951348 L28.0973646,20.7029186 Z"/>
    <path fill="#21285E" d="M2.40816176 29.3721081C1.76280987 29.3955223 1.13846569 29.1452033.694852941 28.6851892.260575868 28.2207927.0289838088 27.6082367.0496323529 26.9785946.0435787572 26.3444283.203525113 25.7193332.514191176 25.163027.787121257 24.6655939 1.1204233 24.202339 1.50683824 23.7833513L11.0977941 13.1545946 2.73772059 13.1545946C1.92772059 13.1545946 1.34801471 12.8821621 1.03036765 12.3411892.721088875 11.7977459.566791514 11.1827065.583676471 10.5606487.561342731 9.96113377.737548045 9.3706329 1.08595588 8.87740537 1.43128715 8.4106368 1.99329508 8.14580992 2.58088235 8.17297297L17.3514706 8.17297297C17.9759812 8.1447696 18.5850485 8.36837932 19.0369853 8.7917838 19.4558824 9.20237835 19.6683088 9.78616215 19.6683088 10.5256216 19.6859896 11.1014413 19.5634918 11.6731077 19.3109559 12.1932973 19.0686215 12.6465167 18.7647546 13.0654627 18.4076471 13.4387027L8.41963239 24.3885406 17.8835294 24.3885406C18.4528692 24.3746502 18.9948593 24.6276254 19.3427206 25.0696216 19.7133773 25.5637858 19.9004229 26.1673608 19.8727941 26.7801081 19.8998178 27.4185091 19.7436884 28.0515481 19.4221324 28.6073513 19.0985294 29.1152432 18.5247794 29.374054 17.71875 29.374054L2.40816176 29.3721081zM25.6102941 29.6523243C22.9817647 29.6523243 22.4338235 28.3290811 22.4338235 27.2198919L22.4338235 11.0296216C22.4338235 10.1831351 22.6938971 9.49816215 23.2100735 8.99416215 23.72625 8.49016215 24.5481618 8.23329727 25.6559559 8.23329727 26.5890441 8.23329727 27.3275735 8.44151355 27.8536765 8.85405405 28.3797794 9.26659462 28.6716176 9.9321081 28.6716176 10.7883243L28.6716176 27.1342702C28.6716176 28.0235676 28.3857353 28.6774054 27.8219118 29.0802162 27.2580882 29.483027 26.5334559 29.6523243 25.6102941 29.6523243zM25.6102941 6.49556757C24.5858824 6.49556757 23.7461029 6.20172973 23.1108088 5.62183784 22.4755147 5.04194594 22.1439706 4.24216217 22.1439706 3.25945946 22.1195707 2.38825673 22.4688185 1.5469118 23.1068382.939891893 23.7361765.334702703 24.5799265.0252972973 25.6102941.0252972973 26.4599729.0271134941 27.2858882.300377871 27.9628676.803675678 28.7013971 1.33686487 29.0766176 2.16583784 29.0766176 3.26724324 29.0766176 4.24994594 28.7510294 5.04583784 28.1097794 5.63156757 27.4685294 6.2172973 26.62875 6.50140541 25.6102941 6.50140541L25.6102941 6.49556757zM35.5248529 35.8562956C33.0670588 35.8562956 32.5469118 34.5116329 32.5469118 33.3829725L32.5469118 10.4808961C32.5256937 9.76356525 32.8072421 9.06941325 33.3251471 8.5621734 33.8393382 8.05816815 34.6632353 7.80130065 35.7710294 7.80130065 36.4600567 7.79443905 37.1407625 7.9492344 37.7563235 8.2527648 38.4094853 8.58163305 38.7489706 9.2257479 38.7489706 10.1500819 38.8813235 10.0008911 39.023603 9.8478084 39.1758088 9.69083385 39.593047 9.27568073 40.05962 8.91112305 40.5655147 8.60498468 41.7951244 7.8527088 43.2197987 7.46356691 44.6691176 7.48410812 46.057966 7.45765925 47.4339219 7.74952193 48.6873529 8.33644133 49.8344608 8.89146368 50.8332022 9.70181865 51.60375 10.7027363 52.4067767 11.7733061 52.9930831 12.9847831 53.3309559 14.2716383 53.7174608 15.7257328 53.9070299 17.2233663 53.8947794 18.7259549 53.9089733 20.2565441 53.690852 21.7806922 53.2475735 23.2483804 52.8558837 24.5521012 52.2129692 25.7701825 51.3536029 26.8367422 50.5255722 27.8417105 49.476286 28.6500079 48.2843382 29.2010911 46.9873749 29.7840261 45.5736051 30.0746109 44.1469853 30.0514783 43.1916195 30.0783731 42.2384882 29.9467886 41.3278676 29.6622851 40.6738887 29.4449567 40.0523286 29.1432779 39.4795588 28.7651947 39.169112 28.5585826 38.8828269 28.3190819 38.6258824 28.0510251L38.6258824 33.2662145C38.6258824 34.1730348 38.37375 34.8424471 37.8754412 35.254992 37.3771324 35.6675368 36.6108088 35.8562956 35.5248529 35.8562956zM43.0808824 12.6720541C42.4044042 12.6560156 41.7350901 12.8108152 41.1372794 13.1215723 40.5747201 13.43425 40.0925736 13.8689047 39.7277206 14.3922882 39.3178141 14.9844476 39.0186669 15.6433717 38.8442647 16.3382544 38.6387901 17.1457659 38.5380684 17.9754602 38.5444853 18.8076856 38.5444853 20.7030566 38.9415441 22.2228563 39.7356618 23.3262191 40.5297794 24.4295819 41.6077941 24.945263 43.0888235 24.945263 44.5698529 24.945263 45.6478676 24.3926086 46.3963235 23.2542184 47.1447794 22.1158281 47.5438669 20.5999205 47.5438669 18.8076856 47.5463069 17.9776532 47.4422548 17.1506114 47.2341176 16.3460383 47.0596899 15.6541514 46.7670256 14.9962004 46.3685294 14.4000721 46.0140774 13.8759682 45.5377924 13.4417977 44.9788235 13.133248 44.3971215 12.8222041 43.7434509 12.663364 43.0808824 12.6720541z" transform="translate(46)"/>
  </g>
</svg>
